<svg xmlns="http://www.w3.org/2000/svg" width="900" height="1200" viewBox="0 0 900 1200" fill="none">
  <title>Click Chase</title>
  <defs>
    <linearGradient id="bg" x1="0" y1="0" x2="1" y2="1">
      <stop offset="0%" stop-color="#FFF3C7"/>
      <stop offset="55%" stop-color="#FFE08A"/>
      <stop offset="100%" stop-color="#FFB44D"/>
    </linearGradient>
    <radialGradient id="glow" cx="50%" cy="42%" r="45%">
      <stop offset="0%" stop-color="#FFFFFF" stop-opacity="0.95"/>
      <stop offset="55%" stop-color="#FFFFFF" stop-opacity="0.35"/>
      <stop offset="100%" stop-color="#FFFFFF" stop-opacity="0"/>
    </radialGradient>
    <filter id="shadow" x="-20%" y="-20%" width="140%" height="140%">
      <feDropShadow dx="0" dy="20" stdDeviation="22" flood-color="#9B5B00" flood-opacity="0.28"/>
    </filter>
  </defs>
  <rect width="900" height="1200" fill="url(#bg)"/>
  <circle cx="450" cy="470" r="330" fill="url(#glow)"/>
  <circle cx="714" cy="180" r="70" fill="#FFF8E4" opacity="0.7"/>
  <circle cx="158" cy="240" r="26" fill="#FFF8E4" opacity="0.4"/>
  <path d="M158 930C300 740 415 635 544 550C635 491 734 418 790 330" stroke="#1F2A38" stroke-width="18" stroke-linecap="round" stroke-dasharray="2 40" opacity="0.22"/>
  <g filter="url(#shadow)">
    <circle cx="640" cy="360" r="88" fill="#FFFFFF" stroke="#1F2A38" stroke-width="18"/>
    <circle cx="640" cy="360" r="24" fill="#FF6B2E"/>
    <path d="M640 258L640 210M640 510L640 462M538 360L490 360M790 360L742 360M570 290L535 255M710 290L745 255M570 430L535 465M710 430L745 465" stroke="#1F2A38" stroke-width="16" stroke-linecap="round"/>
  </g>
  <g filter="url(#shadow)">
    <circle cx="290" cy="742" r="62" fill="#FF3D3D" stroke="#1F2A38" stroke-width="16"/>
    <circle cx="290" cy="742" r="16" fill="#FFF7EA"/>
  </g>
  <g opacity="0.9">
    <path d="M618 309C652 279 693 272 730 285" stroke="#FFFFFF" stroke-width="10" stroke-linecap="round"/>
    <path d="M298 688C324 665 347 652 377 646" stroke="#FFFFFF" stroke-width="10" stroke-linecap="round"/>
  </g>
  <rect x="56" y="72" width="788" height="1056" rx="44" stroke="#1F2A38" stroke-width="10" opacity="0.12"/>
  <text x="84" y="104" fill="#1F2A38" font-family="Arial, Helvetica, sans-serif" font-size="34" font-weight="800" letter-spacing="5">CLICK</text>
  <text x="84" y="164" fill="#1F2A38" font-family="Arial, Helvetica, sans-serif" font-size="72" font-weight="900" letter-spacing="2">CHASE</text>
  <text x="84" y="218" fill="#1F2A38" font-family="Arial, Helvetica, sans-serif" font-size="24" font-weight="700" opacity="0.72" letter-spacing="3">HIT THE TARGET, DON'T BLINK</text>
</svg>
