<svg xmlns="http://www.w3.org/2000/svg" width="900" height="1200" viewBox="0 0 900 1200" fill="none">
  <title>Code Breaker</title>
  <defs>
    <linearGradient id="bg" x1="0" y1="0" x2="1" y2="1">
      <stop offset="0%" stop-color="#F2F4F7"/>
      <stop offset="100%" stop-color="#CBD5E1"/>
    </linearGradient>
    <filter id="shadow" x="-20%" y="-20%" width="140%" height="140%">
      <feDropShadow dx="0" dy="18" stdDeviation="20" flood-color="#475569" flood-opacity="0.2"/>
    </filter>
  </defs>
  <rect width="900" height="1200" fill="url(#bg)"/>
  <g opacity="0.22" stroke="#64748B" stroke-width="3">
    <path d="M120 286H780M120 360H780M120 434H780M120 508H780M120 582H780M120 656H780"/>
    <path d="M170 244V720M250 244V720M330 244V720M410 244V720M490 244V720M570 244V720M650 244V720M730 244V720"/>
  </g>
  <g filter="url(#shadow)">
    <circle cx="450" cy="540" r="220" fill="#E2E8F0" stroke="#334155" stroke-width="14"/>
    <circle cx="450" cy="540" r="160" fill="#F8FAFC" stroke="#94A3B8" stroke-width="10"/>
    <path d="M450 320V260M450 820V760M230 540H170M730 540H670M296 386L252 342M604 694L648 738M604 386L648 342M296 694L252 738" stroke="#334155" stroke-width="14" stroke-linecap="round"/>
    <circle cx="450" cy="540" r="34" fill="#E8792D"/>
  </g>
  <g filter="url(#shadow)">
    <rect x="286" y="908" width="328" height="108" rx="28" fill="#334155"/>
    <text x="450" y="978" text-anchor="middle" fill="#F8FAFC" font-family="Arial, Helvetica, sans-serif" font-size="46" font-weight="900" letter-spacing="8">BREAK</text>
  </g>
  <text x="84" y="104" fill="#334155" font-family="Arial, Helvetica, sans-serif" font-size="34" font-weight="800" letter-spacing="5">CODE</text>
  <text x="84" y="164" fill="#334155" font-family="Arial, Helvetica, sans-serif" font-size="72" font-weight="900" letter-spacing="2">BREAKER</text>
  <text x="84" y="218" fill="#334155" font-family="Arial, Helvetica, sans-serif" font-size="24" font-weight="700" opacity="0.72" letter-spacing="3">DECODE THE LOCK</text>
  <rect x="56" y="72" width="788" height="1056" rx="44" stroke="#334155" stroke-width="10" opacity="0.1"/>
</svg>
