<svg xmlns="http://www.w3.org/2000/svg" width="900" height="1200" viewBox="0 0 900 1200" fill="none">
  <title>Crate Sort</title>
  <defs>
    <linearGradient id="bg" x1="0" y1="0" x2="1" y2="1">
      <stop offset="0%" stop-color="#F7E8D1"/>
      <stop offset="100%" stop-color="#D8B588"/>
    </linearGradient>
    <filter id="shadow" x="-20%" y="-20%" width="140%" height="140%">
      <feDropShadow dx="0" dy="18" stdDeviation="20" flood-color="#70502A" flood-opacity="0.2"/>
    </filter>
  </defs>
  <rect width="900" height="1200" fill="url(#bg)"/>
  <path d="M96 984H804" stroke="#8C6239" stroke-width="14" stroke-linecap="round" opacity="0.4"/>
  <g filter="url(#shadow)">
    <rect x="130" y="540" width="150" height="150" rx="16" fill="#8B5A2B"/>
    <rect x="292" y="540" width="150" height="150" rx="16" fill="#D09A4A"/>
    <rect x="454" y="540" width="150" height="150" rx="16" fill="#5E7C4B"/>
    <rect x="616" y="540" width="150" height="150" rx="16" fill="#C86B4A"/>
    <rect x="210" y="380" width="150" height="150" rx="16" fill="#5E7C4B"/>
    <rect x="372" y="380" width="150" height="150" rx="16" fill="#8B5A2B"/>
    <rect x="534" y="380" width="150" height="150" rx="16" fill="#D09A4A"/>
    <rect x="292" y="700" width="150" height="150" rx="16" fill="#C86B4A"/>
    <rect x="454" y="700" width="150" height="150" rx="16" fill="#8B5A2B"/>
  </g>
  <g stroke="#F8F0E3" stroke-width="10" opacity="0.75">
    <path d="M155 615H255M255 615V654M255 615L213 575"/>
    <path d="M317 615H417M417 615V654M417 615L375 575"/>
    <path d="M479 615H579M579 615V654M579 615L537 575"/>
    <path d="M641 615H741M741 615V654M741 615L699 575"/>
  </g>
  <text x="84" y="104" fill="#5B3A1F" font-family="Arial, Helvetica, sans-serif" font-size="34" font-weight="800" letter-spacing="5">CRATE</text>
  <text x="84" y="164" fill="#5B3A1F" font-family="Arial, Helvetica, sans-serif" font-size="72" font-weight="900" letter-spacing="2">SORT</text>
  <text x="84" y="218" fill="#5B3A1F" font-family="Arial, Helvetica, sans-serif" font-size="24" font-weight="700" opacity="0.72" letter-spacing="3">STACK BY COLOR</text>
  <rect x="56" y="72" width="788" height="1056" rx="44" stroke="#5B3A1F" stroke-width="10" opacity="0.1"/>
</svg>
