<svg xmlns="http://www.w3.org/2000/svg" width="900" height="1200" viewBox="0 0 900 1200" fill="none">
  <title>Harbor Match</title>
  <defs>
    <linearGradient id="bg" x1="0" y1="0" x2="1" y2="1">
      <stop offset="0%" stop-color="#E8F5FB"/>
      <stop offset="100%" stop-color="#9FD1E4"/>
    </linearGradient>
    <filter id="shadow" x="-20%" y="-20%" width="140%" height="140%">
      <feDropShadow dx="0" dy="16" stdDeviation="18" flood-color="#2D5E72" flood-opacity="0.2"/>
    </filter>
  </defs>
  <rect width="900" height="1200" fill="url(#bg)"/>
  <path d="M0 854C176 796 300 770 450 770C600 770 724 796 900 854V1200H0V854Z" fill="#2A6E86" opacity="0.88"/>
  <path d="M0 900C176 842 300 816 450 816C600 816 724 842 900 900" stroke="#D6F2FF" stroke-width="20" stroke-linecap="round" opacity="0.6"/>
  <g filter="url(#shadow)">
    <path d="M164 808L164 586H266V808" fill="#5C8CA1"/>
    <path d="M206 608H288V808H206" fill="#F28C3D"/>
    <path d="M346 808L346 516H456V808" fill="#4D7486"/>
    <path d="M506 808L506 548H618V808" fill="#D95C4A"/>
    <path d="M666 808L666 600H768V808" fill="#5C8CA1"/>
    <path d="M100 808H800" stroke="#1E4656" stroke-width="18" stroke-linecap="round"/>
  </g>
  <g filter="url(#shadow)">
    <circle cx="250" cy="672" r="36" fill="#F6D15D"/>
    <circle cx="412" cy="620" r="36" fill="#F6D15D"/>
    <circle cx="572" cy="652" r="36" fill="#F6D15D"/>
  </g>
  <text x="84" y="104" fill="#1E4656" font-family="Arial, Helvetica, sans-serif" font-size="34" font-weight="800" letter-spacing="5">HARBOR</text>
  <text x="84" y="164" fill="#1E4656" font-family="Arial, Helvetica, sans-serif" font-size="72" font-weight="900" letter-spacing="2">MATCH</text>
  <text x="84" y="218" fill="#1E4656" font-family="Arial, Helvetica, sans-serif" font-size="24" font-weight="700" opacity="0.72" letter-spacing="3">PAIR THE DOCKS</text>
  <rect x="56" y="72" width="788" height="1056" rx="44" stroke="#1E4656" stroke-width="10" opacity="0.1"/>
</svg>
