<svg xmlns="http://www.w3.org/2000/svg" width="900" height="1200" viewBox="0 0 900 1200" fill="none">
  <title>Lane Dodge</title>
  <defs>
    <linearGradient id="bg" x1="0" y1="0" x2="1" y2="1">
      <stop offset="0%" stop-color="#EAF1FF"/>
      <stop offset="100%" stop-color="#AFC8FF"/>
    </linearGradient>
    <filter id="shadow" x="-20%" y="-20%" width="140%" height="140%">
      <feDropShadow dx="0" dy="18" stdDeviation="18" flood-color="#203B75" flood-opacity="0.25"/>
    </filter>
  </defs>
  <rect width="900" height="1200" fill="url(#bg)"/>
  <path d="M312 1200L405 160H495L588 1200Z" fill="#25324D"/>
  <path d="M394 1200L453 160H447L506 1200Z" fill="#F8FBFF" opacity="0.9"/>
  <path d="M430 1200V160" stroke="#F4C04D" stroke-width="10" stroke-dasharray="52 48" opacity="0.95"/>
  <path d="M388 1200V160" stroke="#FFFFFF" stroke-width="10" stroke-linecap="round" stroke-dasharray="28 38" opacity="0.5"/>
  <path d="M512 1200V160" stroke="#FFFFFF" stroke-width="10" stroke-linecap="round" stroke-dasharray="28 38" opacity="0.5"/>
  <g filter="url(#shadow)">
    <rect x="360" y="784" width="180" height="138" rx="30" fill="#FF6A3D"/>
    <rect x="392" y="748" width="116" height="44" rx="18" fill="#FF9468"/>
    <circle cx="398" cy="944" r="24" fill="#1C2740"/>
    <circle cx="502" cy="944" r="24" fill="#1C2740"/>
    <rect x="152" y="430" width="84" height="170" rx="24" fill="#1C2740"/>
    <rect x="664" y="300" width="84" height="170" rx="24" fill="#1C2740"/>
    <rect x="686" y="652" width="72" height="126" rx="18" fill="#1C2740"/>
  </g>
  <text x="84" y="104" fill="#1C2740" font-family="Arial, Helvetica, sans-serif" font-size="34" font-weight="800" letter-spacing="5">LANE</text>
  <text x="84" y="164" fill="#1C2740" font-family="Arial, Helvetica, sans-serif" font-size="72" font-weight="900" letter-spacing="2">DODGE</text>
  <text x="84" y="218" fill="#1C2740" font-family="Arial, Helvetica, sans-serif" font-size="24" font-weight="700" opacity="0.72" letter-spacing="3">SWERVE THROUGH TRAFFIC</text>
  <rect x="56" y="72" width="788" height="1056" rx="44" stroke="#1C2740" stroke-width="10" opacity="0.12"/>
</svg>
