<svg xmlns="http://www.w3.org/2000/svg" width="900" height="1200" viewBox="0 0 900 1200" fill="none">
  <title>Memory Flip</title>
  <defs>
    <linearGradient id="bg" x1="0" y1="0" x2="0.9" y2="1">
      <stop offset="0%" stop-color="#EFF7F2"/>
      <stop offset="100%" stop-color="#CDEEDD"/>
    </linearGradient>
    <filter id="shadow" x="-20%" y="-20%" width="140%" height="140%">
      <feDropShadow dx="0" dy="18" stdDeviation="20" flood-color="#2E5E50" flood-opacity="0.18"/>
    </filter>
  </defs>
  <rect width="900" height="1200" fill="url(#bg)"/>
  <path d="M40 260C200 160 343 118 470 118C616 118 735 180 860 288" stroke="#FFFFFF" stroke-opacity="0.55" stroke-width="64" stroke-linecap="round"/>
  <path d="M90 968C214 850 347 800 500 800C650 800 760 848 840 910" stroke="#FFFFFF" stroke-opacity="0.5" stroke-width="52" stroke-linecap="round"/>
  <g filter="url(#shadow)">
    <rect x="150" y="260" width="180" height="240" rx="24" fill="#2B5A52"/>
    <rect x="345" y="260" width="180" height="240" rx="24" fill="#5E8F7A"/>
    <rect x="540" y="260" width="180" height="240" rx="24" fill="#D97A5A"/>
    <rect x="150" y="520" width="180" height="240" rx="24" fill="#D97A5A"/>
    <rect x="345" y="520" width="180" height="240" rx="24" fill="#2B5A52"/>
    <rect x="540" y="520" width="180" height="240" rx="24" fill="#5E8F7A"/>
  </g>
  <g opacity="0.92">
    <path d="M195 340C220 302 277 302 302 340C277 378 220 378 195 340Z" fill="#F5E7B8"/>
    <circle cx="435" cy="381" r="48" fill="#F5E7B8"/>
    <path d="M583 320L676 320L630 400Z" fill="#F5E7B8"/>
    <path d="M212 625h96l-48 76z" fill="#F5E7B8"/>
    <circle cx="435" cy="651" r="46" fill="#F5E7B8"/>
    <path d="M590 646C606 616 644 616 660 646C644 676 606 676 590 646Z" fill="#F5E7B8"/>
  </g>
  <text x="84" y="104" fill="#1F4A43" font-family="Arial, Helvetica, sans-serif" font-size="34" font-weight="800" letter-spacing="5">MEMORY</text>
  <text x="84" y="164" fill="#1F4A43" font-family="Arial, Helvetica, sans-serif" font-size="72" font-weight="900" letter-spacing="2">FLIP</text>
  <text x="84" y="218" fill="#1F4A43" font-family="Arial, Helvetica, sans-serif" font-size="24" font-weight="700" opacity="0.72" letter-spacing="3">REMEMBER THE PAIRS</text>
  <rect x="56" y="72" width="788" height="1056" rx="44" stroke="#1F4A43" stroke-width="10" opacity="0.11"/>
</svg>
