<svg xmlns="http://www.w3.org/2000/svg" width="900" height="1200" viewBox="0 0 900 1200" fill="none">
  <title>Truth Judge</title>
  <defs>
    <linearGradient id="bg" x1="0" y1="0" x2="1" y2="1">
      <stop offset="0%" stop-color="#F4F0EA"/>
      <stop offset="100%" stop-color="#DDD1C0"/>
    </linearGradient>
    <filter id="shadow" x="-20%" y="-20%" width="140%" height="140%">
      <feDropShadow dx="0" dy="18" stdDeviation="20" flood-color="#635247" flood-opacity="0.22"/>
    </filter>
  </defs>
  <rect width="900" height="1200" fill="url(#bg)"/>
  <g filter="url(#shadow)">
    <rect x="400" y="310" width="100" height="520" rx="22" fill="#7C5A46"/>
    <rect x="240" y="420" width="420" height="70" rx="35" fill="#7C5A46"/>
    <path d="M280 490L220 640H340L280 490Z" fill="#C9A278"/>
    <path d="M620 490L560 640H680L620 490Z" fill="#C9A278"/>
    <rect x="310" y="234" width="280" height="80" rx="18" fill="#B2885A"/>
    <circle cx="450" cy="244" r="22" fill="#F6E9D8"/>
  </g>
  <g filter="url(#shadow)">
    <rect x="158" y="770" width="186" height="152" rx="26" fill="#2D6A73"/>
    <text x="251" y="868" text-anchor="middle" fill="#F5F0E8" font-family="Arial, Helvetica, sans-serif" font-size="42" font-weight="900">TRUTH</text>
    <rect x="556" y="770" width="186" height="152" rx="26" fill="#C14F48"/>
    <text x="649" y="868" text-anchor="middle" fill="#F5F0E8" font-family="Arial, Helvetica, sans-serif" font-size="42" font-weight="900">LIE</text>
  </g>
  <text x="84" y="104" fill="#4B3A30" font-family="Arial, Helvetica, sans-serif" font-size="34" font-weight="800" letter-spacing="5">TRUTH</text>
  <text x="84" y="164" fill="#4B3A30" font-family="Arial, Helvetica, sans-serif" font-size="72" font-weight="900" letter-spacing="2">JUDGE</text>
  <text x="84" y="218" fill="#4B3A30" font-family="Arial, Helvetica, sans-serif" font-size="24" font-weight="700" opacity="0.72" letter-spacing="3">CHOOSE THE RIGHT CALL</text>
  <rect x="56" y="72" width="788" height="1056" rx="44" stroke="#4B3A30" stroke-width="10" opacity="0.1"/>
</svg>
